<?xml version="1.0" standalone="no"?>
<!DOCTYPE svg PUBLIC "-//W3C//DTD SVG 20010904//EN"
 "http://www.w3.org/TR/2001/REC-SVG-20010904/DTD/svg10.dtd">
<svg version="1.0" xmlns="http://www.w3.org/2000/svg"
 width="941.000000pt" height="1280.000000pt" viewBox="0 0 941.000000 1280.000000"
 preserveAspectRatio="xMidYMid meet">
<metadata>
Created by potrace 1.15, written by Peter Selinger 2001-2017
</metadata>
<g transform="translate(0.000000,1280.000000) scale(0.100000,-0.100000)"
fill="#000000" stroke="none">
<path d="M4270 12791 c-30 -5 -91 -24 -135 -42 -76 -32 -87 -34 -245 -39 -194
-8 -203 -10 -475 -136 -190 -87 -301 -124 -373 -124 -39 0 -68 -17 -335 -197
-617 -416 -775 -528 -1172 -837 -509 -395 -672 -556 -808 -799 -104 -186 -157
-362 -206 -687 -57 -373 -78 -609 -87 -975 -7 -271 0 -373 45 -602 18 -90 39
-251 51 -390 41 -480 97 -805 184 -1084 l14 -46 -96 5 c-169 7 -316 -39 -390
-123 -29 -33 -46 -67 -70 -147 -36 -115 -80 -324 -111 -528 -87 -572 -79 -856
32 -1190 44 -134 549 -1130 630 -1242 63 -88 174 -192 221 -208 55 -18 108 -9
220 39 55 23 110 41 125 39 23 -3 26 -8 29 -48 10 -188 60 -467 118 -657 119
-393 296 -709 698 -1248 140 -188 194 -253 218 -263 18 -8 53 -31 79 -53 26
-21 52 -39 58 -39 7 0 18 -15 26 -33 7 -17 27 -49 44 -71 17 -21 31 -45 31
-52 0 -7 15 -21 32 -30 63 -32 155 -115 277 -250 138 -153 157 -168 330 -265
131 -75 181 -109 326 -225 128 -102 150 -111 353 -145 160 -26 179 -31 195
-54 22 -29 45 -31 190 -13 82 10 138 9 350 -6 531 -38 824 -32 911 19 40 23
53 26 139 23 90 -2 98 0 160 31 87 44 167 113 314 269 109 116 131 134 210
175 99 51 170 118 288 272 184 241 206 265 340 366 142 106 157 122 262 279
74 110 130 172 175 196 19 10 32 30 47 76 24 72 113 254 230 472 126 233 182
376 213 538 8 43 17 68 26 68 7 0 25 6 40 14 26 13 29 22 45 128 28 172 69
325 176 648 94 284 98 295 122 292 13 -2 65 -4 114 -5 80 -2 96 1 145 25 79
39 122 78 205 186 68 88 72 97 63 124 -14 40 -4 94 32 170 34 71 36 91 16 139
-17 42 -13 52 34 109 54 66 60 82 60 155 0 77 3 83 87 193 71 94 77 110 71
190 -7 74 5 107 97 267 109 191 119 222 118 380 0 115 -5 151 -40 304 l-40
173 40 -6 c23 -4 47 -12 54 -18 10 -8 13 -7 13 3 0 26 -18 41 -51 44 -33 2
-36 6 -128 184 -56 109 -111 201 -136 229 l-43 47 -128 5 c-78 3 -138 11 -152
19 -26 14 -27 8 6 136 26 97 30 146 42 440 10 239 17 289 86 615 44 212 52
372 20 453 -10 27 -16 50 -13 53 2 2 17 0 32 -6 49 -18 61 -7 60 57 0 46 8 75
38 141 51 111 63 187 47 322 -11 105 -19 130 -143 486 -26 72 -92 291 -147
485 -123 434 -154 529 -192 596 -16 29 -82 105 -150 172 -114 114 -120 122
-114 152 8 42 -16 79 -105 164 -164 154 -399 264 -596 279 -35 2 -63 1 -63 -3
0 -5 9 -16 21 -27 27 -24 52 -72 44 -84 -11 -19 -26 -10 -40 23 -7 18 -23 41
-34 51 -24 21 -29 11 -7 -13 26 -29 83 -154 136 -298 29 -79 57 -143 61 -143
4 0 11 9 14 20 9 29 51 37 76 14 l21 -19 -7 73 c-9 88 4 100 62 53 64 -51 127
-73 210 -74 l73 0 25 -43 c13 -23 26 -57 27 -75 3 -29 0 -34 -21 -37 -13 -2
-42 4 -64 14 -38 18 -40 17 -53 -1 -8 -10 -14 -28 -14 -40 0 -36 -22 -52 -110
-80 -270 -85 -479 -249 -609 -477 l-32 -57 33 -68 c32 -65 140 -187 210 -238
26 -19 27 -21 14 -57 l-13 -37 56 -35 c101 -62 188 -172 256 -321 38 -82 43
-85 169 -85 90 0 135 13 321 87 155 62 218 81 295 85 39 2 46 -1 57 -22 7 -14
13 -44 13 -67 0 -41 -1 -42 -42 -53 -24 -6 -49 -13 -56 -15 -7 -3 -92 -13
-190 -25 -198 -22 -243 -34 -319 -86 -61 -42 -63 -50 -33 -146 23 -76 82 -170
143 -232 33 -33 45 -54 50 -85 3 -22 27 -87 53 -143 46 -99 48 -106 47 -188 0
-59 -12 -136 -38 -250 -40 -179 -48 -288 -26 -354 15 -43 18 -38 -51 -87 -21
-15 -22 -17 -8 -87 14 -78 10 -102 -35 -211 l-27 -64 17 -78 c15 -70 15 -82 1
-137 -22 -83 -21 -90 19 -106 34 -14 54 -40 42 -53 -4 -3 -20 0 -37 7 -17 7
-33 10 -36 7 -3 -3 11 -117 30 -254 47 -323 66 -492 66 -576 0 -79 10 -88 74
-66 62 22 78 58 85 198 5 101 9 120 28 140 27 29 40 59 67 163 27 105 43 116
188 129 118 10 195 3 222 -20 63 -54 176 -258 220 -396 48 -151 59 -221 59
-390 1 -223 -19 -291 -215 -720 -214 -467 -246 -560 -278 -813 -11 -84 -24
-172 -31 -195 -26 -101 -101 -180 -182 -192 -58 -9 -142 24 -191 74 l-39 40 7
74 c12 136 6 439 -14 717 -11 151 -20 335 -20 408 0 72 -4 132 -8 132 -5 0
-18 -17 -30 -39 -27 -47 -29 -150 -7 -251 17 -78 20 -523 5 -720 -27 -342 -89
-664 -177 -908 -19 -53 -33 -76 -51 -85 -32 -15 -40 -38 -153 -452 -103 -376
-157 -543 -224 -700 -77 -179 -117 -244 -354 -560 -219 -293 -233 -310 -692
-810 -481 -525 -637 -651 -932 -749 -249 -84 -516 -119 -897 -119 -291 0 -484
15 -685 53 -262 51 -312 83 -911 572 -620 506 -911 804 -1242 1270 -207 292
-308 516 -421 933 -131 481 -251 1389 -251 1896 0 131 -2 148 -19 163 -27 24
-39 88 -46 240 -7 157 -25 209 -79 231 -20 8 -38 15 -42 15 -16 0 22 -495 76
-985 43 -383 65 -608 75 -758 l7 -97 -74 -35 c-147 -70 -251 -44 -359 92 -151
190 -478 773 -587 1048 -153 386 -169 794 -56 1462 43 257 81 429 102 461 23
35 138 128 187 152 27 13 62 20 99 20 172 0 243 -81 336 -380 45 -143 85 -241
120 -290 17 -24 29 -30 59 -30 50 0 95 16 153 55 35 23 44 34 38 45 -14 22
-11 116 5 190 8 36 14 84 15 108 0 37 -4 44 -27 54 -16 7 -29 13 -31 13 -1 1
5 19 13 39 14 34 14 42 -3 98 l-19 62 37 56 c45 65 79 180 117 393 7 39 -18
35 -51 -8 -45 -58 -93 -39 -56 22 10 17 39 59 64 93 25 34 53 87 62 116 29
100 3 144 -44 74 -58 -87 -57 -20 2 80 48 83 63 120 47 120 -20 0 -41 33 -41
65 0 21 -9 44 -25 64 l-26 30 36 49 c49 69 62 105 69 202 9 107 34 213 90 388
65 197 86 292 93 422 6 112 7 117 48 190 52 93 67 138 64 190 -3 30 2 45 21
66 51 54 153 117 366 223 120 60 248 128 283 151 63 41 171 140 171 158 0 4
-27 21 -60 36 -76 35 -90 58 -61 97 l22 29 -43 20 c-24 11 -75 29 -114 40 -91
26 -134 55 -153 104 -12 32 -12 39 0 47 38 24 176 -4 250 -52 25 -16 93 -78
150 -138 145 -151 196 -173 294 -130 45 20 50 20 82 5 33 -15 33 -15 33 8 0
40 20 48 76 31 27 -8 55 -15 62 -15 22 0 24 28 3 49 -22 22 -26 47 -12 70 7
11 24 5 88 -32 160 -94 283 -135 359 -121 32 6 35 8 21 19 -18 13 -23 35 -8
35 5 0 22 -7 37 -15 35 -18 60 -19 134 -3 48 10 61 9 90 -5 18 -10 35 -15 37
-13 7 6 -16 46 -27 46 -10 0 -40 28 -40 38 0 4 4 13 9 20 6 11 21 5 67 -24 69
-44 140 -73 207 -84 l48 -7 -3 41 c-3 40 -5 42 -68 73 -64 31 -90 55 -90 80 0
7 5 13 11 13 21 0 138 -63 193 -105 56 -42 57 -42 129 -37 57 3 83 0 125 -17
60 -24 90 -26 126 -10 23 11 30 8 67 -26 52 -47 96 -65 155 -65 l47 0 -7 63
c-15 148 -81 306 -176 424 -70 87 -169 168 -350 288 -147 98 -159 108 -229
199 -66 86 -194 216 -213 216 -23 0 4 -83 36 -109 24 -20 19 -38 -13 -52 l-29
-13 74 -70 c41 -39 74 -79 74 -88 0 -10 -9 -27 -20 -38 l-21 -21 -97 100 c-62
64 -113 107 -142 120 -99 45 -88 24 61 -121 151 -147 218 -235 259 -337 18
-47 18 -51 2 -42 -24 13 -60 54 -127 144 l-59 79 -14 -27 c-13 -26 -14 -26
-33 -9 -11 10 -26 42 -35 71 -22 74 -49 102 -179 183 -62 39 -133 90 -157 114
l-43 44 -90 4 c-57 3 -114 13 -155 28 -66 23 -300 139 -300 149 0 4 55 6 123
6 144 0 214 18 278 73 l41 36 48 -27 c62 -35 76 -34 84 3 3 17 12 30 19 30 7
0 26 -13 42 -30 34 -36 49 -37 135 -8 58 19 96 22 360 29 373 9 555 35 1100
159 l125 29 155 -74 c130 -63 223 -95 272 -95 5 0 -7 15 -26 34 -33 31 -49 76
-27 76 6 0 31 -11 57 -25 64 -34 74 -32 74 10 0 39 28 75 59 75 10 0 58 -19
107 -42 76 -36 99 -42 159 -43 l71 -1 69 -74 68 -73 -27 -14 c-16 -9 -24 -19
-19 -26 4 -7 31 -46 59 -89 83 -121 144 -261 144 -330 0 -43 -25 -24 -56 39
-26 55 -26 55 -64 50 l-39 -5 -28 67 c-33 79 -114 203 -145 223 -56 36 -58 24
-5 -31 48 -50 57 -65 57 -95 0 -20 -4 -36 -10 -36 -5 0 -10 4 -10 9 0 24 -199
116 -216 99 -3 -3 18 -28 45 -54 51 -49 185 -257 174 -268 -4 -3 -19 -6 -34
-6 -37 0 -44 -14 -15 -33 46 -30 68 -117 30 -117 -25 0 -87 64 -170 177 -72
97 -107 133 -128 133 -3 0 4 -15 15 -34 10 -18 17 -41 13 -50 -9 -23 -21 -20
-28 9 -9 35 -49 34 -65 -1 -13 -30 0 -58 51 -106 27 -26 37 -48 19 -48 -13 0
-112 91 -251 231 -169 170 -291 246 -381 237 l-32 -3 113 -120 c101 -108 150
-175 150 -205 0 -18 -36 7 -113 77 -73 67 -109 88 -136 78 -12 -5 -8 -11 17
-27 35 -22 53 -65 32 -78 -19 -11 -246 83 -358 149 -29 17 -52 28 -52 25 0
-24 43 -73 105 -120 45 -34 78 -66 81 -81 13 -50 -14 -42 -101 31 -37 32 -49
37 -66 29 -20 -8 -20 -10 15 -36 44 -34 49 -62 9 -52 -53 13 -133 67 -228 153
-169 154 -225 200 -268 220 -23 11 -44 19 -45 17 -7 -6 54 -88 125 -171 130
-150 183 -248 183 -339 0 -38 -3 -43 -17 -38 -37 12 -85 56 -154 139 -80 96
-118 124 -168 124 -39 0 -38 -5 12 -89 48 -80 144 -179 309 -318 81 -69 173
-155 203 -191 70 -84 129 -199 150 -295 l17 -75 66 -30 c140 -64 210 -65 288
-6 l45 35 38 -34 c61 -55 114 -70 223 -65 94 5 203 35 220 60 12 20 9 107 -7
173 -17 68 -19 153 -5 175 7 12 13 11 35 -10 32 -30 50 -93 70 -247 20 -153
29 -183 61 -183 13 0 39 14 59 32 27 23 45 31 71 30 19 -1 34 2 34 6 0 32 24
140 35 162 17 32 45 46 57 28 4 -7 8 -41 8 -75 0 -64 6 -93 20 -93 5 0 12 9
15 21 6 19 12 20 68 14 34 -3 67 -2 73 2 6 4 19 44 27 87 16 78 37 123 37 79
0 -35 19 -78 31 -66 5 5 16 47 24 93 16 93 35 130 66 130 19 0 21 -4 15 -37
-4 -21 -18 -70 -32 -110 -30 -89 -34 -193 -6 -193 37 1 101 40 143 89 65 76
139 117 139 76 0 -19 43 -40 64 -32 10 4 16 23 18 54 4 57 30 72 50 28 9 -21
18 -25 41 -23 24 2 32 10 41 38 11 34 12 34 72 36 122 3 196 65 343 286 50 75
108 151 129 167 l37 31 -81 163 c-84 168 -154 273 -197 296 -46 25 -60 -6 -32
-72 18 -45 19 -67 2 -67 -7 0 -28 36 -46 81 -36 88 -55 104 -81 71 -18 -21
-18 -21 -34 29 -10 28 -28 68 -41 88 -24 39 -84 95 -92 87 -2 -2 14 -62 37
-133 43 -134 59 -246 45 -319 l-7 -39 -23 51 c-24 54 -56 82 -124 110 -39 15
-46 24 -76 90 -43 95 -89 161 -128 185 -34 20 -77 25 -77 9 0 -26 37 -94 116
-212 46 -70 93 -146 103 -170 24 -54 35 -136 23 -168 -8 -23 -12 -19 -53 55
-53 97 -147 224 -191 257 -32 24 -92 58 -102 58 -3 0 14 -30 39 -66 46 -67 55
-94 32 -94 -20 0 -41 28 -65 83 -21 48 -42 62 -42 27 0 -10 8 -35 17 -55 14
-29 14 -38 4 -48 -10 -10 -18 -5 -39 23 -49 64 -146 162 -252 253 -122 105
-280 258 -280 271 0 15 138 -4 244 -35 101 -29 182 -38 225 -24 20 6 8 14 -77
55 -54 26 -134 71 -176 99 -93 63 -256 218 -317 301 -53 73 -121 190 -110 190
14 0 84 -56 126 -100 48 -50 87 -72 140 -79 36 -5 55 -21 180 -151 120 -125
145 -146 178 -152 55 -10 113 -40 204 -105 103 -74 164 -105 199 -101 27 3 26
4 -30 47 -31 25 -64 57 -72 72 -13 26 -12 29 5 39 30 15 47 13 111 -20 55 -28
90 -31 90 -8 0 5 -17 30 -39 54 -21 24 -55 75 -75 113 -36 68 -37 70 -88 81
-68 14 -98 34 -98 65 0 51 20 44 185 -64 92 -61 165 -99 165 -85 0 3 -13 22
-29 42 -17 20 -33 49 -36 64 -6 23 -3 27 24 33 17 4 35 14 40 22 13 25 28 8
45 -52 15 -49 44 -85 69 -85 14 0 -1 64 -28 122 -27 58 -31 89 -15 119 15 28
35 24 79 -16 46 -42 97 -136 144 -266 49 -134 91 -213 138 -259 23 -22 45 -40
50 -40 18 0 22 77 7 150 -42 206 -224 522 -408 710 -153 156 -328 208 -805
240 -93 7 -219 18 -280 26 l-110 14 -22 -27 -22 -27 -268 77 c-382 109 -522
142 -728 173 -118 17 -446 26 -525 15z m145 -206 c31 -13 97 -50 148 -81 50
-31 106 -63 123 -70 31 -13 32 -13 43 16 5 17 18 33 27 37 13 5 77 -11 132
-34 7 -3 10 1 6 10 -3 8 -46 41 -95 73 -50 32 -86 60 -81 62 6 2 54 -13 109
-34 229 -85 500 -262 724 -472 60 -57 72 -73 62 -83 -17 -17 -16 -44 2 -59 21
-17 8 -32 -16 -19 -50 26 -31 -29 35 -99 42 -46 76 -100 76 -122 0 -21 -104
45 -160 100 -30 30 -93 104 -139 163 -111 144 -181 210 -265 253 -38 19 -71
32 -74 29 -9 -9 51 -89 122 -165 104 -109 178 -212 163 -226 -8 -8 -125 75
-201 145 -81 74 -136 117 -136 106 0 -19 66 -103 150 -191 97 -101 142 -164
156 -217 l7 -29 -31 16 c-17 9 -64 51 -104 93 -152 162 -204 210 -251 232 -26
13 -50 21 -53 18 -19 -19 173 -282 219 -300 6 -3 0 -6 -14 -6 -55 -2 -118 56
-215 199 -79 116 -118 160 -271 308 -98 95 -168 168 -155 162 29 -14 28 -3 -7
51 -37 58 -65 83 -142 124 l-64 35 57 0 c40 0 75 -8 113 -25z m-190 -179 c56
-34 142 -54 184 -43 15 4 28 -8 54 -47 19 -29 70 -90 114 -137 215 -231 262
-293 289 -386 27 -93 15 -91 -75 9 -123 137 -253 269 -259 263 -12 -12 23 -61
87 -121 68 -64 105 -120 99 -149 -2 -11 -25 -4 -95 30 -188 89 -365 233 -528
429 -47 55 -85 104 -85 109 0 16 48 5 100 -23 30 -17 63 -30 72 -30 29 0 31
21 4 49 -15 15 -26 39 -26 54 0 15 2 27 4 27 2 0 29 -15 61 -34z m1324 -210
c15 -18 6 -37 -13 -30 -11 4 -36 45 -36 60 0 8 36 -14 49 -30z m1527 19 c27
-18 50 -73 37 -86 -16 -16 -41 1 -53 37 -6 19 -18 34 -26 34 -15 0 -19 12 -7
23 10 11 27 8 49 -8z m-3301 -16 c253 -31 413 -130 700 -434 128 -135 242
-242 305 -288 l25 -17 -35 6 c-90 15 -158 59 -374 241 -54 44 -127 97 -164
116 -70 36 -172 71 -172 59 0 -20 52 -76 107 -116 67 -49 87 -74 99 -121 6
-26 5 -28 -8 -18 -8 7 -64 31 -124 53 -59 22 -119 48 -132 56 -18 12 -27 13
-36 4 -8 -8 1 -22 38 -53 32 -29 47 -49 45 -61 -6 -31 -21 -28 -76 13 -29 21
-109 74 -179 117 -130 82 -245 178 -278 234 l-18 32 21 -12 c20 -10 21 -9 15
17 -4 15 -7 32 -8 38 0 5 28 13 63 18 57 8 66 7 93 -13 20 -15 33 -19 40 -12
6 6 -7 29 -41 66 -81 90 -74 95 94 75z m3025 -124 c0 -20 -5 -25 -25 -25 -20
0 -25 5 -25 25 0 20 5 25 25 25 20 0 25 -5 25 -25z m-979 -136 c53 -52 99
-134 99 -177 0 -28 -3 -26 -86 52 -91 86 -108 109 -120 170 l-7 39 34 -19 c18
-11 54 -40 80 -65z m-2247 -179 c74 -17 147 -40 171 -54 41 -25 43 -27 43 -75
0 -36 7 -63 26 -95 35 -60 34 -77 -3 -66 -46 13 -71 29 -138 92 -44 41 -68 57
-75 50 -16 -16 -1 -47 59 -114 51 -56 55 -63 36 -66 -30 -4 -69 18 -138 80
-75 68 -114 95 -147 103 -37 9 -45 -12 -14 -36 14 -11 26 -28 26 -37 0 -15
-13 -17 -102 -16 -78 0 -111 5 -136 18 -78 40 -43 -19 42 -73 72 -45 87 -61
58 -61 -62 0 -396 141 -390 164 2 6 14 44 27 83 l23 73 61 -6 c150 -12 166
-16 211 -45 26 -16 51 -29 56 -29 18 0 16 26 -3 61 -12 20 -18 43 -14 53 6 15
12 14 59 -10 29 -14 60 -33 70 -41 26 -23 34 4 9 31 -24 25 -26 37 -10 53 8 8
19 9 38 2 14 -6 84 -23 155 -39z m-886 -120 c98 -9 130 -22 159 -66 21 -33 7
-44 -63 -44 -66 0 -136 21 -203 62 -98 59 -80 67 107 48z m-49 -141 c32 -11
33 -13 16 -26 -20 -14 -275 -20 -275 -5 0 12 14 28 35 41 25 15 175 8 224 -10z
m-196 -166 c12 -12 -15 -33 -43 -33 -16 0 -57 13 -92 30 -36 17 -79 30 -102
30 -33 0 -37 2 -26 15 10 12 36 15 114 15 55 0 108 5 116 10 12 7 16 2 21 -25
3 -20 9 -38 12 -42z m-443 -68 c0 -3 -7 -17 -17 -31 -23 -35 -78 -61 -159 -74
-160 -26 -192 -39 -237 -92 -58 -68 -96 -90 -148 -86 l-42 3 51 51 c60 58 179
131 267 164 115 42 285 81 285 65z m815 -189 c295 -100 398 -148 497 -235 43
-38 133 -159 125 -168 -2 -1 -60 23 -128 56 -131 62 -285 125 -333 137 -47 11
-24 -10 84 -82 61 -40 107 -78 120 -100 12 -19 20 -37 18 -39 -4 -4 -64 19
-240 95 -49 20 -68 25 -68 15 0 -20 54 -62 97 -75 62 -20 114 -53 129 -82 14
-27 19 -88 8 -88 -4 0 -33 25 -65 55 -107 99 -252 170 -586 291 -106 38 -193
72 -193 76 0 4 18 13 40 19 33 10 55 9 122 -4 85 -17 118 -21 152 -19 34 3 -1
29 -69 52 -62 21 -115 53 -115 70 0 18 42 21 101 6 93 -24 101 -23 93 19 -6
36 -1 65 13 65 5 0 94 -29 198 -64z m-1350 -177 c30 -11 55 -23 55 -27 0 -4
-41 -38 -92 -75 -89 -67 -216 -138 -270 -151 l-27 -6 20 35 c26 44 72 83 127
107 23 10 42 23 42 28 0 14 -30 40 -46 40 -12 0 -13 4 -3 23 7 12 19 27 28 34
25 19 104 15 166 -8z m872 -94 c363 -120 523 -232 612 -425 40 -88 46 -110 29
-110 -19 0 -52 24 -133 95 -72 64 -131 105 -152 105 -8 0 -8 -10 2 -37 7 -21
19 -65 25 -98 10 -45 21 -68 47 -94 26 -26 31 -36 21 -43 -25 -17 -68 2 -133
57 -36 30 -69 55 -73 55 -212 2 -246 6 -372 52 -69 25 -143 49 -165 53 l-40 7
25 20 c22 18 34 19 105 14 73 -6 78 -5 55 8 -15 8 -65 26 -114 39 -48 14 -90
27 -93 31 -10 9 26 56 59 76 85 52 297 45 413 -13 l40 -20 -18 21 c-30 33
-145 89 -242 117 -102 30 -268 55 -367 55 -74 0 -85 11 -47 46 19 17 35 19
138 16 107 -3 118 -2 135 17 11 12 25 21 33 21 7 0 102 -29 210 -65z m2411
-54 c45 -33 50 -40 37 -51 -8 -7 -25 -9 -37 -6 -30 8 -100 74 -93 86 12 19 42
10 93 -29z m-666 -118 c19 -16 61 -59 95 -98 33 -38 69 -78 79 -87 22 -20 86
-48 108 -48 23 0 0 55 -30 75 -43 28 -64 54 -64 80 0 31 4 31 66 -5 49 -28
114 -106 114 -136 0 -7 -15 -14 -32 -16 -42 -4 -50 -36 -17 -67 l23 -21 -35 0
c-57 0 -129 41 -194 112 -59 63 -173 238 -156 238 4 0 24 -12 43 -27z m912
-24 c19 -32 21 -69 3 -92 -11 -16 -14 -16 -35 -2 -19 14 -22 25 -22 81 0 60 1
63 19 52 10 -6 26 -24 35 -39z m3168 -1 c81 -46 85 -110 13 -177 -79 -73 -202
-121 -310 -121 -61 0 -125 15 -125 29 0 22 340 291 369 291 7 0 31 -10 53 -22z
m-6737 -39 c80 -12 91 -23 57 -57 -12 -12 -41 -21 -76 -26 -72 -8 -79 -12
-191 -97 -50 -37 -107 -75 -128 -84 -35 -14 -38 -14 -44 2 -13 32 -8 127 7
157 49 94 186 133 375 105z m2261 -78 c31 -38 67 -75 81 -82 39 -21 21 -34
-46 -34 l-63 0 -23 62 c-12 34 -30 74 -39 87 -21 33 -20 36 9 36 19 0 39 -17
81 -69z m2436 35 c6 -11 17 -45 24 -73 l12 -53 -49 0 c-45 0 -49 2 -40 18 7
13 6 34 -5 68 -8 27 -12 54 -10 60 7 18 55 4 68 -20z m2198 -141 c0 -22 73
-98 115 -121 19 -10 35 -21 35 -24 0 -12 -70 -39 -127 -49 -32 -5 -115 -12
-185 -16 -148 -7 -215 -24 -262 -66 -33 -28 -35 -29 -41 -10 -13 43 57 104
144 127 40 10 49 17 71 59 14 27 37 57 52 68 54 40 198 63 198 32z m-6478 -17
c40 -16 57 -28 55 -38 -2 -11 -14 -14 -49 -12 -35 3 -48 -1 -56 -13 -8 -15
-11 -14 -30 10 -27 34 -28 51 -4 64 22 14 18 14 84 -11z m3429 -57 c24 -25 29
-38 29 -78 0 -26 -4 -54 -9 -62 -12 -19 -36 19 -67 104 -24 65 -24 65 -3 65
11 0 34 -13 50 -29z m359 3 c0 -22 -4 -25 -27 -22 -18 2 -27 10 -29 26 -3 19
1 22 26 22 26 0 30 -4 30 -26z m-4164 -169 c31 -13 34 -17 24 -34 -5 -11 -18
-25 -28 -30 -13 -8 -1 -10 46 -11 60 0 122 -20 122 -39 0 -5 -26 -14 -58 -20
-94 -18 -154 -54 -235 -142 l-73 -79 -21 27 -20 27 -57 -19 c-57 -20 -58 -20
-72 0 -16 22 -18 78 -4 105 18 34 -8 32 -61 -4 -41 -29 -55 -34 -70 -26 -23
13 -23 15 -1 52 17 30 140 128 160 128 6 0 24 -8 41 -17 28 -16 33 -16 41 -3
16 25 35 -2 20 -30 -16 -30 -10 -33 39 -15 64 22 101 53 123 102 21 47 31 50
84 28z m7010 -39 c68 -31 82 -61 60 -121 -22 -55 -20 -91 4 -108 19 -13 19
-15 3 -29 -33 -27 -72 -37 -179 -48 -59 -6 -122 -17 -141 -25 -45 -19 -41 3 5
25 35 17 40 31 17 50 -13 11 -29 11 -85 0 -39 -7 -73 -10 -76 -7 -10 10 114
129 179 172 45 30 55 41 46 51 -17 20 -52 17 -77 -6 l-22 -21 0 24 c0 26 22
50 60 66 39 17 145 5 206 -23z m-6866 -141 c0 -3 -7 -21 -15 -41 -16 -38 -62
-64 -115 -64 -63 0 -22 62 60 90 59 21 70 23 70 15z m330 -95 c13 -8 12 -13
-6 -37 -18 -24 -29 -28 -68 -27 l-46 0 25 -43 c17 -31 20 -45 12 -48 -7 -3
-24 -9 -39 -14 -26 -10 -29 -8 -47 27 -30 60 -47 70 -82 50 -41 -24 -36 -4 7
29 67 51 206 87 244 63z m6620 -109 c0 -10 18 -46 41 -79 36 -55 40 -67 37
-113 l-3 -52 -45 -14 c-38 -11 -277 -63 -293 -63 -2 0 -4 8 -3 17 0 9 -10 22
-22 29 -13 6 -28 16 -33 21 -15 15 0 41 26 47 13 3 43 26 68 50 58 59 114 96
143 96 13 0 24 5 24 10 0 19 -29 22 -52 6 -12 -9 -35 -16 -51 -16 -28 0 -29 1
-15 23 22 33 77 57 131 57 39 0 47 -3 47 -19z m-6387 -5 c31 0 57 -3 57 -7 0
-4 -24 -15 -52 -24 -67 -22 -78 -32 -44 -41 29 -7 35 -24 8 -24 -9 0 -48 6
-85 14 -38 8 -75 12 -83 9 -24 -9 -16 14 13 36 14 12 24 23 22 25 -2 2 -13 8
-24 15 -16 10 -5 11 55 4 41 -4 101 -8 133 -7z m-1205 -56 c-22 -30 -22 -31
-4 -78 28 -74 28 -76 -7 -97 -26 -16 -74 -85 -90 -128 -1 -5 -22 -3 -45 5 -49
15 -53 32 -24 97 15 32 21 38 31 28 10 -9 15 -8 25 7 28 46 49 66 69 66 19 0
17 4 -13 22 -19 12 -37 23 -39 24 -2 2 11 21 29 44 24 30 39 40 61 40 l30 0
-23 -30z m662 21 c0 -19 -30 -39 -67 -46 -53 -10 -63 -21 -63 -74 0 -59 -35
-119 -135 -231 -74 -84 -125 -166 -125 -203 0 -14 -4 -17 -17 -12 -10 5 -36
11 -58 14 -39 6 -39 7 -17 19 32 18 99 112 190 265 87 147 152 225 215 256 44
22 77 27 77 12z m97 -39 c10 -6 9 -13 -3 -31 -20 -28 -72 -51 -114 -51 -29 0
-30 2 -19 23 24 46 51 67 88 67 20 0 42 -4 48 -8z m-969 -94 c31 -31 -1 -118
-43 -118 -12 0 -15 14 -15 65 0 61 1 65 23 65 13 0 28 -5 35 -12z m731 -252
c41 -50 13 -147 -89 -300 -37 -55 -70 -107 -74 -114 -4 -7 2 -33 14 -58 53
-108 -21 -254 -127 -254 -31 0 -32 1 -23 26 6 15 40 122 76 238 69 223 114
337 166 424 35 56 39 59 57 38z m-706 -54 c37 -32 13 -112 -34 -112 -17 0 -19
8 -19 70 0 74 8 80 53 42z m8035 -115 c44 -80 65 -165 60 -241 l-3 -49 -65
-19 c-66 -18 -165 -24 -187 -10 -12 7 -16 25 -14 55 0 9 17 25 36 34 37 18 54
48 36 66 -8 8 -21 6 -46 -6 -44 -21 -75 -22 -75 -2 0 19 36 41 82 49 21 4 40
11 43 16 14 22 -51 21 -147 -4 -106 -27 -154 -32 -176 -18 -35 23 23 64 113
82 33 6 75 16 93 21 34 11 57 41 48 64 -3 8 5 15 22 18 15 3 45 12 67 20 25
10 46 12 56 6 10 -5 35 -41 57 -82z m-7878 -101 c0 -2 -7 -17 -15 -32 -8 -16
-15 -41 -15 -56 0 -33 -31 -68 -60 -68 -18 0 -20 7 -20 73 0 41 3 77 7 80 7 7
103 10 103 3z m41 -257 c17 -17 20 -30 16 -66 -9 -84 -75 -135 -98 -76 -8 23
-6 39 16 95 15 38 31 68 36 68 5 0 19 -10 30 -21z m7886 4 c-31 -95 -32 -101
-11 -192 l20 -90 -22 -12 c-28 -15 -75 -8 -142 21 l-50 22 15 51 c17 58 36 85
73 99 19 7 21 11 10 18 -9 5 -27 3 -49 -7 -41 -18 -84 -22 -91 -9 -8 15 103
85 161 100 75 20 93 20 86 -1z m-7343 -207 c-14 -48 -47 -116 -56 -116 -20 0
-18 33 6 86 14 31 26 64 26 73 1 13 3 13 15 -3 9 -12 12 -29 9 -40z m7296
-150 c0 -27 -33 -56 -62 -56 -23 0 -68 21 -68 32 0 24 42 48 85 48 41 0 45 -2
45 -24z m-16 -369 c16 -11 15 -14 -14 -35 l-30 -23 -9 23 c-7 17 -5 26 7 36
20 15 24 15 46 -1z m-34 -159 c0 -35 -29 -58 -72 -58 -46 0 -50 19 -13 55 32
33 85 35 85 3z m-32 -131 c3 -34 1 -37 -22 -37 -35 0 -50 30 -30 59 24 33 48
23 52 -22z m-7488 -50 c0 -35 -23 -68 -57 -86 -28 -14 -33 -14 -33 2 0 20 73
126 82 121 5 -3 8 -20 8 -37z m7360 18 c0 -28 -21 -36 -87 -32 -40 2 -43 4
-43 30 0 27 1 27 65 27 63 0 65 -1 65 -25z m-7512 -61 c1 -1 0 -8 -4 -17 -7
-19 -68 -41 -89 -33 -15 5 -21 66 -9 79 4 4 73 -15 102 -29z m7526 -189 c36
-15 47 -38 23 -48 -7 -2 -29 2 -50 10 -37 15 -48 37 -24 46 6 3 13 6 13 6 1 1
18 -6 38 -14z m-7383 -76 c14 -49 9 -139 -10 -189 -22 -57 -91 -170 -105 -170
-5 0 -6 20 -3 45 3 32 20 70 56 126 62 97 68 133 17 94 -11 -8 -30 -15 -43
-15 -47 0 -22 103 32 126 38 17 48 14 56 -17z m7311 -76 c23 -11 58 -58 58
-77 0 -3 -30 4 -67 14 -68 19 -93 38 -93 72 0 16 5 18 38 12 20 -4 49 -13 64
-21z m-152 -291 c32 -16 62 -64 48 -77 -18 -19 -128 55 -128 86 0 14 42 9 80
-9z m-7100 -24 c0 -13 -18 -49 -40 -82 -48 -71 -51 -60 -9 34 32 71 49 88 49
48z"/>
<path d="M6855 7189 c-27 -22 -79 -57 -115 -78 -64 -38 -283 -141 -301 -141
-5 0 -9 9 -9 20 0 26 -16 25 -97 -5 -165 -62 -263 -167 -263 -280 0 -59 11
-63 92 -30 12 5 21 -2 32 -24 l16 -30 47 27 c27 14 53 33 59 41 10 13 17 13
54 -4 l42 -19 42 23 c265 151 524 225 856 245 l96 6 19 -55 c16 -50 21 -56 44
-53 16 2 35 18 55 47 17 24 41 47 54 52 19 7 22 5 22 -15 0 -13 -13 -34 -30
-49 -33 -30 -42 -64 -12 -52 9 4 29 10 43 12 23 4 28 -1 48 -47 29 -68 37 -70
123 -35 14 6 17 -1 20 -41 4 -67 22 -75 89 -40 30 16 56 30 58 32 1 1 -17 40
-40 85 -78 145 -139 196 -229 187 -37 -3 -38 -3 -44 35 -5 29 -15 43 -46 65
-22 15 -45 39 -52 55 l-13 27 -153 0 c-169 0 -229 10 -267 46 l-26 24 -19 -22
-18 -23 -56 28 c-31 15 -60 27 -64 26 -4 0 -29 -18 -57 -40z"/>
<path d="M3278 7056 c-15 -8 -53 -35 -83 -60 -74 -60 -88 -63 -126 -32 -17 14
-40 26 -51 26 -23 0 -85 -30 -188 -90 -123 -72 -173 -82 -282 -56 l-57 13 -43
-44 c-24 -25 -99 -93 -166 -151 -134 -114 -209 -196 -247 -272 -35 -70 -34
-74 25 -67 71 9 134 46 242 144 120 108 191 145 285 145 38 1 85 -4 104 -11
33 -11 43 -8 140 38 192 91 243 98 381 55 101 -32 139 -29 317 21 146 41 169
42 278 14 l82 -22 -20 -26 c-11 -14 -17 -27 -12 -28 17 -6 204 56 248 82 38
22 85 75 85 95 0 10 -68 51 -99 60 -18 5 -85 16 -148 25 -131 18 -191 42 -232
92 -28 34 -29 35 -55 18 -39 -26 -110 -21 -198 14 -83 34 -138 39 -180 17z"/>
<path d="M6820 6591 c-126 -28 -276 -90 -296 -123 -11 -18 103 0 277 43 316
77 411 75 545 -12 41 -27 91 -57 111 -67 46 -23 113 -37 113 -23 0 18 -87 96
-139 124 -100 55 -170 69 -356 73 -139 3 -185 0 -255 -15z"/>
<path d="M6050 6552 c0 -8 -28 -36 -193 -192 -97 -92 -125 -146 -133 -256 -8
-94 12 -177 50 -213 l24 -23 21 21 c24 24 26 43 9 121 l-11 56 74 122 c41 68
111 173 157 234 76 102 81 112 65 124 -20 15 -63 19 -63 6z"/>
<path d="M3401 6509 c-149 -18 -268 -60 -536 -189 -93 -45 -180 -86 -192 -91
-13 -5 -23 -17 -23 -28 0 -40 -23 -69 -86 -105 -61 -35 -86 -68 -70 -94 15
-24 124 -46 231 -46 l110 -1 3 27 c2 20 -4 30 -27 44 -19 11 -31 27 -31 39 0
17 7 20 43 21 28 1 67 14 114 38 45 23 87 38 115 39 l43 2 6 -65 c4 -36 9 -72
13 -80 5 -13 -5 -15 -69 -12 -44 2 -75 0 -75 -6 0 -19 70 -71 107 -79 51 -11
220 -8 318 6 44 6 158 32 253 58 135 36 172 50 172 63 0 27 -9 29 -47 14 -58
-25 -63 -17 -63 89 0 115 8 127 72 107 31 -9 69 -38 143 -110 74 -72 111 -101
140 -109 45 -12 95 -15 95 -4 0 3 -14 28 -31 55 -74 116 -219 204 -424 259
-66 18 -109 22 -245 23 -198 1 -255 -12 -380 -84 -96 -55 -128 -65 -167 -55
-27 6 -28 7 -8 22 40 30 152 81 230 106 131 41 256 58 463 64 191 6 192 6 175
25 -40 44 -93 61 -198 64 -55 1 -133 -2 -174 -7z m-121 -295 c0 -30 5 -64 10
-75 19 -35 68 -52 135 -46 93 7 117 22 137 86 21 63 43 91 73 91 19 0 23 -10
37 -82 19 -102 9 -153 -32 -153 -21 0 -26 5 -28 33 -2 17 -6 32 -9 32 -4 0
-34 -27 -69 -60 -34 -33 -71 -60 -81 -60 -11 0 -30 11 -43 25 -29 30 -49 31
-119 5 -60 -23 -95 -20 -136 11 -21 17 -25 29 -25 74 0 103 51 172 128 174 20
1 22 -3 22 -55z"/>
<path d="M4275 6439 c13 -44 64 -128 141 -231 41 -55 83 -117 93 -137 30 -58
51 -140 51 -198 0 -49 2 -53 23 -53 13 0 32 9 42 20 16 18 18 36 16 133 -2
106 -3 113 -29 140 -15 15 -65 85 -113 155 -89 132 -135 176 -198 188 -32 7
-33 6 -26 -17z"/>
<path d="M6824 6449 c-289 -28 -534 -148 -633 -310 l-31 -49 28 0 c43 1 101
32 181 99 83 70 128 95 185 105 34 7 38 5 32 -10 -3 -9 3 -50 14 -91 28 -97
26 -104 -32 -109 -49 -3 -108 -27 -108 -43 0 -14 144 -34 335 -47 210 -13 436
39 535 126 l25 21 -51 -5 c-27 -2 -55 -2 -61 2 -12 8 -26 143 -17 166 22 57
165 -32 236 -146 l29 -47 42 19 c61 28 115 25 215 -14 109 -42 141 -49 186
-40 44 8 48 33 10 63 -22 17 -41 21 -101 21 l-75 0 -57 58 c-126 126 -324 204
-593 232 -105 11 -177 11 -294 -1z m-22 -198 c4 -74 24 -111 60 -111 24 0 23
-12 -3 -36 -28 -25 -104 -24 -149 2 -40 23 -52 59 -41 121 12 60 44 93 92 93
l37 0 4 -69z m388 -101 c-39 -73 -180 -80 -180 -9 0 22 -2 22 39 8 30 -11 35
-9 64 19 18 17 43 35 57 40 22 8 25 7 28 -14 2 -13 -2 -32 -8 -44z"/>
<path d="M3850 6420 c0 -17 64 -69 73 -60 9 8 -9 50 -27 62 -16 11 -46 10 -46
-2z"/>
<path d="M8878 6367 c-18 -23 -68 -82 -113 -132 -96 -107 -124 -145 -155 -205
-33 -64 -50 -135 -50 -209 l0 -63 35 6 c19 4 53 18 77 31 l42 24 24 -42 c33
-59 62 -87 89 -87 19 0 23 4 19 18 -28 91 -34 288 -11 372 14 53 41 100 62
107 5 2 23 -34 38 -79 23 -68 29 -107 33 -210 5 -135 -2 -200 -48 -443 -43
-227 -44 -239 -30 -230 27 16 92 133 114 205 61 193 57 455 -14 795 -32 153
-38 172 -60 178 -15 4 -28 -6 -52 -36z"/>
<path d="M450 6238 c-100 -174 -134 -509 -90 -883 27 -226 45 -310 86 -411 40
-100 59 -131 85 -139 32 -10 39 3 22 43 -106 252 -167 795 -106 933 20 45 77
98 91 84 14 -14 3 -112 -22 -190 -14 -44 -26 -83 -26 -87 0 -12 49 -9 73 4 12
6 43 28 70 50 68 53 88 51 127 -16 17 -30 39 -58 49 -61 20 -6 51 3 51 15 0
16 -149 379 -185 450 -60 120 -161 260 -187 260 -4 0 -21 -24 -38 -52z"/>
<path d="M7635 5993 c-148 -85 -288 -145 -367 -158 -109 -17 -154 -60 -87 -84
111 -38 330 15 449 109 42 33 80 101 80 143 0 33 -1 33 -75 -10z"/>
<path d="M5547 5974 c-8 -15 -38 -144 -54 -229 -8 -45 -16 -184 -20 -317 -9
-374 16 -560 89 -659 l33 -44 3 100 c2 55 -4 201 -13 325 -21 304 -21 579 0
694 l16 90 -24 24 c-14 13 -27 20 -30 16z"/>
<path d="M3925 5833 c-16 -3 -122 -24 -235 -48 -113 -24 -253 -51 -311 -59
-129 -19 -337 -20 -439 -2 -41 8 -77 12 -79 10 -11 -10 16 -59 42 -78 27 -20
43 -21 285 -24 274 -4 394 5 532 39 134 34 264 100 290 149 10 18 8 20 -22 19
-18 -1 -46 -4 -63 -6z"/>
<path d="M6030 5814 c0 -3 15 -34 32 -68 64 -121 189 -217 326 -250 73 -18
192 -28 192 -16 0 25 -95 84 -215 135 -156 66 -203 98 -236 160 -22 41 -27 45
-61 45 -21 0 -38 -3 -38 -6z"/>
<path d="M8420 5565 c0 -42 20 -84 66 -141 19 -22 43 -62 55 -89 30 -67 22
-148 -27 -263 -54 -127 -82 -212 -86 -256 l-3 -38 65 -24 65 -23 23 22 c40 37
99 147 133 247 l32 95 -35 52 c-20 28 -48 85 -63 125 -69 184 -88 222 -140
275 -61 64 -85 69 -85 18z"/>
<path d="M799 5442 c-66 -34 -103 -85 -125 -172 -18 -73 -14 -176 11 -270 17
-63 10 -74 -53 -86 l-34 -7 6 -51 c8 -61 54 -162 98 -219 37 -46 186 -167 206
-167 11 0 13 14 7 72 -9 88 -36 168 -108 318 -65 135 -77 175 -77 252 0 75 9
96 71 164 55 61 88 123 89 167 0 36 -22 35 -91 -1z"/>
<path d="M5696 4754 c-15 -38 -16 -47 -5 -63 8 -10 51 -67 96 -127 87 -115
233 -352 303 -494 32 -64 40 -88 32 -100 -6 -8 -36 -56 -66 -106 -58 -95 -109
-149 -151 -160 -34 -8 -31 -20 6 -28 164 -32 286 72 388 333 19 46 20 55 7 65
-7 6 -56 43 -108 82 -91 69 -94 73 -105 125 -31 150 -106 271 -248 407 -126
121 -126 121 -149 66z"/>
<path d="M8692 4709 c-12 -20 -48 -59 -80 -85 -70 -60 -87 -79 -112 -126 -29
-54 -26 -68 12 -68 48 0 116 38 148 81 33 46 63 149 58 199 l-3 35 -23 -36z"/>
<path d="M4481 4518 c-61 -30 -158 -129 -204 -208 -103 -178 -116 -387 -29
-483 17 -19 92 -62 92 -52 0 3 -15 25 -34 49 -45 59 -61 129 -47 196 14 67 28
92 126 236 45 66 93 140 105 164 29 56 51 120 42 120 -4 0 -27 -10 -51 -22z"/>
<path d="M649 4443 c-11 -124 84 -258 205 -291 53 -15 92 1 116 49 32 61 28
69 -32 69 -67 0 -98 19 -169 100 -46 53 -93 90 -114 90 -3 0 -6 -8 -6 -17z"/>
<path d="M3936 4236 c-55 -118 -108 -197 -178 -263 -46 -43 -63 -53 -104 -58
-46 -7 -56 -14 -164 -124 -63 -64 -165 -163 -226 -221 -172 -163 -234 -278
-204 -384 11 -41 71 -126 89 -126 4 0 15 24 24 53 25 76 93 194 164 284 34 43
158 171 276 285 274 264 357 374 422 553 l24 65 -29 15 c-16 8 -34 15 -40 15
-6 0 -30 -42 -54 -94z"/>
<path d="M4650 3908 c-66 -19 -110 -66 -134 -144 -6 -21 -5 -21 41 -13 65 13
131 3 253 -39 109 -36 200 -46 221 -25 9 9 6 21 -14 52 -55 82 -136 141 -233
166 -66 17 -84 17 -134 3z"/>
<path d="M5672 3903 c-12 -2 -28 -17 -36 -31 -24 -46 -120 -129 -192 -165 -64
-32 -119 -51 -358 -122 -49 -15 -85 -30 -80 -35 5 -4 37 -18 71 -30 51 -18 77
-22 135 -18 84 6 127 25 270 119 149 99 251 135 361 127 l52 -3 3 35 c3 45
-15 79 -53 101 -31 18 -132 31 -173 22z"/>
<path d="M4370 3728 c0 -37 35 -61 96 -66 58 -4 114 9 114 26 0 11 -98 42
-160 49 -41 5 -50 3 -50 -9z"/>
<path d="M7395 3688 c-25 -77 -87 -196 -179 -342 -159 -254 -203 -351 -236
-521 -19 -102 -26 -152 -60 -454 -24 -204 -51 -344 -89 -461 l-29 -85 49 54
c110 123 153 256 194 597 46 389 72 460 228 611 116 114 127 133 172 306 14
54 37 124 51 155 14 31 28 76 31 99 5 35 2 45 -20 67 -18 18 -37 26 -60 26
-33 0 -36 -3 -52 -52z"/>
<path d="M2190 3410 c0 -45 7 -116 15 -158 33 -161 238 -723 306 -836 l30 -51
-5 125 c-9 198 -62 393 -180 663 -71 161 -155 337 -161 337 -3 0 -5 -36 -5
-80z"/>
<path d="M4705 3154 c-16 -2 -66 -9 -110 -15 -248 -32 -466 -83 -764 -180
-206 -67 -374 -106 -413 -96 -56 15 62 -87 192 -167 372 -227 1106 -370 1675
-327 404 31 524 79 1033 419 90 60 131 126 116 187 -4 17 -25 32 -76 54 -151
68 -309 86 -603 71 -290 -16 -310 -25 -75 -34 302 -11 431 -36 501 -97 l34
-28 -30 -1 c-16 0 -95 -5 -175 -11 -80 -6 -440 -12 -800 -13 -643 -3 -658 -3
-840 -29 -207 -29 -472 -62 -570 -72 l-65 -7 24 26 c38 41 101 64 233 86 67
11 211 41 318 65 173 39 357 75 460 88 19 3 96 -6 170 -19 147 -26 327 -41
381 -30 19 3 51 16 71 29 l37 22 -152 0 c-146 1 -157 3 -282 39 -123 36 -223
49 -290 40z m1285 -300 c38 -15 40 -18 40 -58 -1 -84 -57 -162 -145 -201 -75
-33 -124 -43 -357 -70 -117 -14 -301 -37 -408 -51 -246 -32 -424 -41 -513 -25
-37 6 -136 31 -220 56 -83 24 -204 51 -267 59 -140 20 -177 29 -221 59 -41 27
-61 73 -39 88 33 21 201 68 295 82 172 27 312 30 753 17 475 -14 610 -8 787
34 120 29 237 33 295 10z"/>
<path d="M3955 2402 c197 -191 535 -359 815 -406 233 -38 573 -39 735 -1 85
19 128 44 225 130 41 37 120 98 175 135 55 38 111 80 124 94 l24 26 -26 0
c-39 0 -148 -43 -262 -104 -172 -91 -297 -127 -517 -147 -404 -37 -908 82
-1281 304 -43 26 -82 47 -85 47 -4 0 29 -35 73 -78z"/>
<path d="M5153 1640 c-134 -15 -248 -53 -282 -93 -10 -13 2 -16 96 -22 116 -8
388 -1 561 16 105 9 191 38 199 65 8 24 -433 51 -574 34z"/>
</g>
</svg>
